<?xml version="1.0" encoding="UTF-8"?>
<svg version="1.1" viewBox="0 0 2048 2048" width="128" height="128" xmlns="http://www.w3.org/2000/svg">
<path transform="translate(186,863)" d="m0 0h596l35 2 14 3 12 5 12 8 11 9 10 12 11 18 5 14 2 12 1 28v465l2 16 4 8 7 7 7 8 17 16 20 20 8 7 4 4v2h2v2h2l7 8 35 35 8 10 4 8 1 10-3 11-6 10-8 7-3 1-23 1-138 1h-536l-172-1-21-1-14-2-12-4-14-8-10-8-14-16-7-12-6-16-2-12-1-13-1-46v-394l1-118 1-32 2-15 5-14 6-11 8-11 5-6h2v-2l11-9 13-8 10-4 17-3 16-1zm39 63-85 1-20 1-10 2-6 5-5 9-2 5-1 7-1 38-1 293v156l1 91 3 15 5 8 8 7 16 3 532 1h184l61-1 9-2-4-6-8-7-14-12-11-11-7-8-10-11-12-17-8-14-5-13-1-6-1-21-1-82v-380l-1-27-4-11-7-9-7-2-17-1-57-1z" fill="#0169F9"/>
<path transform="translate(1293,31)" d="m0 0h174l33 1 27 2 11 3 15 8 13 10 9 9 12 17 8 17 3 13 1 24v143l-1 80-1 11-5 5-12 5-7 1h-18l-9-3-4-5-4-11-2-17-1-19-1-5-71-1h-343l-517-1-11-1-6-3-6-8-3-9v-18l4-11 5-6 7-4 9-1 63-1 206-1h656l8-1-1-69-1-59-2-14-5-10-5-4-4-1-17-1-314-1h-517l-116 1-23 2-6 3-6 7-4 9-2 17-1 454-1 185-1 12-5 5-9 4-11 2h-14l-10-3-7-5-3-5-1-4-1-13-1-130v-387l1-121 2-23 4-13 8-16 10-13h2l2-4h2l1-3 8-7 14-9 11-4 11-2 11-1 38-1z" fill="#0169F9"/>
<path transform="translate(1553,1219)" d="m0 0h22l13 3 8 5 1 2 1 9 1 40v462l-1 183-2 19-5 17-8 14-11 14-9 9-10 6-16 6-15 3-25 2-60 1h-879l-25-1-20-3-14-5-10-6-13-11-11-13-7-12-7-18-2-12-1-13v-187l1-18 4-8 7-6 9-3 19 1 12 3 8 6 1 2 1 11 1 28 1 172 3 13 4 6 5 6 11 3 9 1h951l16-1 8-2 5-3 5-8 3-11 2-14 1-13v-43h-930l-15-2-6-5-5-8-2-7-1-13 2-10 6-10 9-6 5-1 77-1 162-1h690l7-1 1-1v-431l1-96 1-28 4-8 9-6z" fill="#0169F9"/>
<path transform="translate(1291,447)" d="m0 0h614l32 2 14 3 16 8 13 9 12 12 9 14 8 16 4 16 1 9 1 30v351l-1 127-2 28-3 15-6 14-9 14-9 10-7 7-14 8-13 5-9 2-21 2-35 1-412 1h-75l-346-1-11-1-6-3-6-8-5-11-1-3v-10l4-11 9-11 6-7 8-7 17-16 15-15h2l2-4h2l2-4 44-44 10-13 4-10 1-6 1-294 1-133 2-19 4-13 8-15 11-14 13-12 14-9 12-5 16-3 14-1zm-36 64-21 2-8 4-6 9-3 8-2 20-1 381-1 37-3 22-5 12-12 18-12 14-14 15-9 9-14 11-12 11v1l18 2 81 1h648l41-1 14-2 6-4 6-8 3-9 2-16v-468l-1-41-2-12-4-8-5-5-7-2-18-1z" fill="#0169F9"/>
<path transform="translate(509,993)" d="m0 0h24l14 2 15 5 10 6 12 11 8 10 8 15 4 13 2 17v17l-3 24-5 19-6 17 4 1 71 2 18 2 10 3 12 7 9 10 9 13 5 11 3 13 1 17-2 20-4 18v10l2 8v16l-4 18-7 16-8 15-1 7-1 9-9 37-6 13v6l2 4-1 9-4 17-8 18-6 9-6 7-13 10-9 4-13 2-19 1h-135l-32-1-38-3-19-5-22-9-25-11-5 1-11 11-14 10-13 4-16 2-20 1h-33l-17-1-16-3-12-5-13-10-9-13-4-9-3-16-1-15v-217l1-31 2-15 4-11 10-14 7-7 15-9 12-4 17-2 17-1h37l18 2 11 3 10 6 12 11 8 7 12 3h34l12-2 10-5 11-9 8-9 8-13 8-14 8-20 8-23 11-27 10-16 9-10 12-8zm26 62-6 3-6 12-13 35-15 32-10 16-10 14-13 15-11 10-14 9-13 6-17 4-20 2-26 1h-37l-18-1-9-2-8-23-4-4-10-1-24-1h-22l-5 2-1 2-1 169v75l1 9 8 1h51l6-2 1-109 3-12 4-5 10-5 5-1 14 1 13 4 6 3 3 3 2 6 1 72 3 12 5 4 14 5 26 9 19 8 11 3 26 3 79 1h80l13-1 3-1-1-13-3-14-1-14 3-9 5-5v-2l4-2 7-9 1-7-3-14-1-10v-11l3-7 9-8 6-4 6-6 3-10v-6l-8-13-2-6 1-10 4-12 9-20 1-9-1-1-7-1-116-1-18-2-5-3-8-9-4-11 2-14 10-30 7-19 7-22 3-20v-18l-3-9z" fill="#0169F9"/>
<path transform="translate(1420,577)" d="m0 0h31l26 3 16 4 15 5 19 10 13 9 14 12 23 23 8 6 6-8 17-17 11-9 13-10 13-8 16-8 16-6 18-4 18-2h32l18 2 17 5 12 5 14 9 12 11 9 10 11 18 7 15 6 20 3 20v42l-4 29-8 26-9 22-12 21-9 15-11 15-20 25-11 12-7 8-21 21-11 9-12 10-16 12-18 13-17 11-22 13-23 12-24 11-13 3h-10l-16-6-18-8-22-12-20-12-14-9-13-9-16-12-16-13-8-7-20-18-14-14-7-8-10-11-11-14-12-16-12-19-14-27-7-16-8-24-5-24-2-27v-12l2-21 5-20 6-16 8-16 7-10 9-11 10-9 15-10 17-8 15-4zm11 61-14 2-14 7-12 10-9 17-4 13-2 10-1 23 2 18 4 17 5 15 9 21 12 21 10 14 13 16 15 16 17 17 8 7 13 11 14 11 18 13 23 15 11 7 32 16h7l21-12 18-10 17-11 19-13 13-10 16-13 11-10 8-7 19-19 7-8 12-15 14-21 12-22 9-25 5-20 2-19v-16l-2-17-4-13-8-14-9-10-10-6-11-4-6-1h-25l-15 3-15 6-14 7-14 10-7 7-6 5-7 8-9 10-8 11-12 16-7 8-10 4-10 1-12-3-9-6-12-15-10-14-9-11-6-7h-2l-2-4-10-9-17-12-19-9-14-4-10-2z" fill="#016AFA"/>
<path transform="translate(951,129)" d="m0 0h142l10 3 10 8 4 8 1 5v13l-2 8-4 7-4 5-11 4h-146l-8-2-7-6-6-10-2-6v-14l4-10 7-7 7-5z" fill="#0169F9"/>
<path transform="translate(1154,1087)" d="m0 0h77l677 1v1l-15 2-14 2-27 1-7-1h-14l-27-1h-98l-5 1h-165l-26 1-18-1h-125l-35-1h-41l-17 1-6 2-14 1-1 1-10 2-52 2h-8l-16-4-6-4v-2h-2v-2l-5-1z" fill="#015BF1"/>
<path transform="translate(1214,553)" d="m0 0h1v382l-1 37-2 13-3-3-1-13-3-34v-29l-1-9 1-10-1-4v-13l1-18v-21l1-23v-26l1-16 1-39v-95l1-21 2-21 1-30z" fill="#015BF1"/>
<path transform="translate(1207,129)" d="m0 0 17 1 9 3 7 6 5 9 1 4v17l-3 9-7 8-14 3h-13l-9-2-8-5-5-6-3-8v-12l4-13 7-8 8-5z" fill="#0169F9"/>
<path transform="translate(94,971)" d="m0 0h1v560l-3-4-6-13-1-4v-16l1-22 2-24v-59l1-42v-11l1-14-1-14 1-5-1-18v-86l-1-20v-82l1-11 1-16 1-25 1-49z" fill="#015CF1"/>
<path transform="translate(2011,524)" d="m0 0 2 3 1 9 1 30v351l-1 127-2 28-2 5h-1l-2-9v-33l-2-1 1-8 1-25v-29l1-55v-35l-1-50 1-40v-16l1-6v-30l1-19 1-32z" fill="#015CF2"/>
<path transform="translate(268,1567)" d="m0 0h633l-2 2-66 1h-37l-156 1h-304l-49 1h-135l-10-3v-1z" fill="#015BF1"/>
<path transform="translate(1537,1239)" d="m0 0h1v534l-1 20-1 1h-84l-591-1v-1l156-1h510l7-1 1-1v-431l1-96z" fill="#015CF2"/>
<path transform="translate(1653,506)" d="m0 0h98l39 1h20l78 1 3 1 21 1v1h-651v-1l12-1 1-1h69l29-1h266z" fill="#015CF2"/>
<path transform="translate(1291,447)" d="m0 0h614l20 1 7 1-2 2h-299l-90 1h-19l-49-1h-32l-121-1-58-1v-1z" fill="#015BF1"/>
<path transform="translate(1950,550)" d="m0 0 2 2 1 5 1 28 1 94 1 195v117l-1 37-3 19h-1l-1-101z" fill="#015BF1"/>
<path transform="translate(892,942)" d="m0 0 2 4 1 28v408l-1 48-3-3-2-8-1-41v-14l2-45 1-50v-286z" fill="#015DF2"/>
<path transform="translate(1534,134)" d="m0 0 2 3 1 5 1 27v32l-1 56-7 2-105-1h-526l-140-1v-1l112-1h656l8-1-1-69z" fill="#015EF3"/>
<path transform="translate(448,135)" d="m0 0h1l1 6 1 87v505l-1 45h-1l-1-12-1-130v-387z" fill="#015BF1"/>
<path transform="translate(831,967)" d="m0 0 2 2 1 6 1 225v203l-1 59-2-2-1-21-1-82v-90z" fill="#015BF1"/>
<path transform="translate(1153,530)" d="m0 0h1l2 198 1 124v61l-2 24-2 9-2-3v-271l1-133z" fill="#015BF1"/>
<path transform="translate(510,136)" d="m0 0h1v452l-1 185-1 12h-2l-1-21v-69l1-36 1-72 1-318v-118z" fill="#015FF3"/>
<path transform="translate(186,863)" d="m0 0h596l23 1 5 1v1l-28 1h-25l-45-1h-76l-84 1-122-1h-84l-165-1v-1z" fill="#015DF2"/>
<path transform="translate(1597,1249)" d="m0 0h1l1 29v462l-1 164h-1l-1-78v-573z" fill="#015FF3"/>
<path transform="translate(1880,1142)" d="m0 0 2 1-1 2 21-2 1 2h9v-2h5l6 2h9l1 3-12 1-35 1h-254l-5-1v-1l78-1h34l34-1 9 1 9-1 3-1 7 1 3-1 6 1 4-1 5 1 7-1 3 1 1-1h7l7-1 6 1 5-1 18-1 1 2 6-1z" fill="#015EF3"/>
<path transform="translate(162,1168)" d="m0 0h1v211l-1 72h-1l-2-21v-217l1-31 1-11z" fill="#015CF1"/>
<path transform="translate(32,1152)" d="m0 0h1l2 117 1 75v28l-2 157h-1l-1-37z" fill="#015BF1"/>
<path transform="translate(521,923)" d="m0 0 65 1h193l4 1 13 1v1h-58l-352-1 2-2h56z" fill="#015BF1"/>
<path transform="translate(1078,1148)" d="m0 0h399l-3 3h-75l-320-1z" fill="#015CF1"/>
<path transform="translate(222,1210)" d="m0 0h1v145l-1 60-2-3-1-4v-133l1-58z" fill="#015CF1"/>
<path transform="translate(1534,134)" d="m0 0 2 3 1 5 1 27v32l-1 56-7 2-105-1-37-1 1-2h138l8-1-1-69z" fill="#015BF1"/>
<path transform="translate(613,1439)" d="m0 0h10l-1 2-11 2-11 1h-52l-32 1-17 3h-11l-12-5v-2l-3-1z" fill="#015BF1"/>
<path transform="translate(509,595)" d="m0 0h1v178l-1 12h-2l-1-21v-69l1-36 1-63z" fill="#015BF1"/>
<path transform="translate(508,1728)" d="m0 0 2 1 1 20v148l-1 13-2-4-1-10v-39z" fill="#015CF1"/>
<path transform="translate(1420,577)" d="m0 0h31l16 2 3 2-2 2-12 2-25 1h-25l-15-1 2-3 17-4z" fill="#015BF1"/>
<path transform="translate(529,1211)" d="m0 0h106l7 1v2h14v1h-108l-18-2z" fill="#015EF3"/>
<path transform="translate(491,1497)" d="m0 0 8 1h51l35 1 16 1v1h-151l-4-2 24-1h16z" fill="#015BF1"/>
<path transform="translate(832,1627)" d="m0 0h78l59 1v1l-126 2-7-1-58-1v-1z" fill="#015BF1"/>
<path transform="translate(1851,687)" d="m0 0 2 1 1 4v42l-3 24-2 2-2-10 1-7 1-27 1-7z" fill="#015CF1"/>
<path transform="translate(1e3 129)" d="m0 0h87v1l-73 3-6 1-3-1-27-2v-1z" fill="#015BF1"/>
<path transform="translate(1713,577)" d="m0 0h32l5 1-4 3h-8l-10 2h-29l-1-3 5-2z" fill="#015CF2"/>
<path transform="translate(348,1322)" d="m0 0 2 1 1 72 1 10-3-2-2-15v-30z" fill="#015BF1"/>
<path transform="translate(290,1321)" d="m0 0h1v26l-1 51-1 9h-1v-78z" fill="#015BF1"/>
<path transform="translate(1532,1854)" d="m0 0h5l2 10v32l-3 16-2 2 1-16v-43z" fill="#015BF1"/>
<path transform="translate(1314,680)" d="m0 0h1l-1 59h-1l-1-5-1-18v-12l2-21z" fill="#015DF2"/>
<path transform="translate(556,1951)" d="m0 0 84 1v1l-61 1h-13l-10-2z" fill="#015BF1"/>
<path transform="translate(343,1211)" d="m0 0 31 1h14l-1 2-26 1h-19l-1-3z" fill="#015EF2"/>
<path transform="translate(627,1152)" d="m0 0h40l5 1v1l-19 1-26-2z" fill="#015CF1"/>
<path transform="translate(363,1152)" d="m0 0h11l-2 4-1 1h-5l-5-3z" fill="#015BF1"/>
<path transform="translate(253,1440)" d="m0 0h12l-2 4-10-1-3-2z" fill="#015BF1"/>
<path transform="translate(514,1176)" d="m0 0h1v18l-2-1-1-7z" fill="#015DF2"/>
<path transform="translate(1020,1592)" d="m0 0h2l1 2-1 11-2 2z" fill="#015EF3"/>
<path transform="translate(658,1255)" d="m0 0h1v15l-2 1-1-7z" fill="#015DF2"/>
<path transform="translate(1891,1139)" d="m0 0 6 1-1 3h-7v-2h-7v-1z" fill="#015BF1"/>
<path transform="translate(529,1211)" d="m0 0h10l3 1v2l-12-1z" fill="#015FF3"/>
</svg>
